#tb 0: 1/44100
#media_type 0: audio
#codec_id 0: pcm_s16le
#sample_rate 0: 44100
#channel_layout 0: 3
#channel_layout_name 0: stereo
0,          0,          0,      888,     3552, 0x592ce6cc
0,        888,        888,     1024,     4096, 0x20f6f6a9
0,       1912,       1912,     1024,     4096, 0x3f840122
0,       2936,       2936,     1024,     4096, 0xa905f9d1
0,       3960,       3960,     1024,     4096, 0x1547eb1b
0,       4984,       4984,     1024,     4096, 0xab54067e
0,       6008,       6008,     1024,     4096, 0x06c6f5ef
0,       7032,       7032,     1024,     4096, 0xc5c1f5bb
0,       8056,       8056,     1024,     4096, 0x6a89fd31
0,       9080,       9080,     1024,     4096, 0xb9d3ffa1
0,      10104,      10104,     1024,     4096, 0x4262e2ff
0,      11128,      11128,     1024,     4096, 0x7afffe9d
0,      12152,      12152,     1024,     4096, 0xdc1d0274
0,      13176,      13176,     1024,     4096, 0xad97f96f
0,      14200,      14200,     1024,     4096, 0xb26ee1cb
0,      15224,      15224,     1024,     4096, 0xbe90fb3d
0,      16248,      16248,     1024,     4096, 0xf1d30268
0,      17272,      17272,     1024,     4096, 0x697ffa2d
0,      18296,      18296,     1024,     4096, 0x5531efc3
0,      19320,      19320,     1024,     4096, 0xf857f707
0,      20344,      20344,     1024,     4096, 0x63b005c8
0,      21368,      21368,     1024,     4096, 0xec82ea67
0,      22392,      22392,     1024,     4096, 0x9f6dfae9
0,      23416,      23416,     1024,     4096, 0xdebbfb1d
0,      24440,      24440,     1024,     4096, 0xd454efab
0,      25464,      25464,     1024,     4096, 0xd093f135
0,      26488,      26488,     1024,     4096, 0x52530de6
0,      27512,      27512,     1024,     4096, 0x23f6f239
0,      28536,      28536,     1024,     4096, 0xb179ee71
0,      29560,      29560,     1024,     4096, 0xea3ff767
0,      30584,      30584,     1024,     4096, 0xf40e0f1c
0,      31608,      31608,     1024,     4096, 0xc960f597
0,      32632,      32632,     1024,     4096, 0x9c1bee7d
0,      33656,      33656,     1024,     4096, 0x20f6f6a9
0,      34680,      34680,     1024,     4096, 0x3f840122
0,      35704,      35704,     1024,     4096, 0xa905f9d1
0,      36728,      36728,     1024,     4096, 0x1547eb1b
0,      37752,      37752,     1024,     4096, 0xab54067e
0,      38776,      38776,     1024,     4096, 0x06c6f5ef
0,      39800,      39800,     1024,     4096, 0xc5c1f5bb
0,      40824,      40824,     1024,     4096, 0x6a89fd31
0,      41848,      41848,     1024,     4096, 0xb9d3ffa1
0,      42872,      42872,     1024,     4096, 0x4262e2ff
0,      43896,      43896,     1024,     4096, 0x78b0e7fb
0,      44920,      44920,     1024,     4096, 0x498cf37b
0,      45944,      45944,     1024,     4096, 0xdedfdf2b
0,      46968,      46968,     1024,     4096, 0x430efa55
0,      47992,      47992,     1024,     4096, 0xa487044e
0,      49016,      49016,     1024,     4096, 0x0dfff373
0,      50040,      50040,     1024,     4096, 0xf922f9e1
0,      51064,      51064,     1024,     4096, 0xc577f857
0,      52088,      52088,     1024,     4096, 0x33b5ee21
0,      53112,      53112,     1024,     4096, 0x3e5ff725
0,      54136,      54136,     1024,     4096, 0x909f0630
0,      55160,      55160,     1024,     4096, 0xe087f33f
0,      56184,      56184,     1024,     4096, 0x8162efc1
0,      57208,      57208,     1024,     4096, 0x6c953c36
0,      58232,      58232,     1024,     4096, 0x413d0d22
0,      59256,      59256,     1024,     4096, 0xeed90a6c
0,      60280,      60280,     1024,     4096, 0x15c6f533
0,      61304,      61304,     1024,     4096, 0xb7a1eb5f
0,      62328,      62328,     1024,     4096, 0x9a83e815
0,      63352,      63352,     1024,     4096, 0x3370056e
0,      64376,      64376,     1024,     4096, 0xea3ee86b
0,      65400,      65400,     1024,     4096, 0xc05be2c5
0,      66424,      66424,     1024,     4096, 0x4b41001a
0,      67448,      67448,     1024,     4096, 0x8aa1fd37
0,      68472,      68472,     1024,     4096, 0x940df3d9
0,      69496,      69496,     1024,     4096, 0x6d8f0206
0,      70520,      70520,     1024,     4096, 0xbfd9dea3
0,      71544,      71544,     1024,     4096, 0x1e8309a0
0,      72568,      72568,     1024,     4096, 0xf188fe8d
0,      73592,      73592,     1024,     4096, 0x498ffb27
0,      74616,      74616,     1024,     4096, 0x64fc009a
0,      75640,      75640,     1024,     4096, 0x196df42b
0,      76664,      76664,     1024,     4096, 0x4863297a
0,      77688,      77688,     1024,     4096, 0xbaac05c2
0,      78712,      78712,     1024,     4096, 0xf47e0996
0,      79736,      79736,     1024,     4096, 0xafa4e80b
0,      80760,      80760,     1024,     4096, 0x0240f325
0,      81784,      81784,     1024,     4096, 0x5c1d0962
0,      82808,      82808,     1024,     4096, 0x5bfa50e2
0,      83832,      83832,     1024,     4096, 0x666becf9
0,      84856,      84856,     1024,     4096, 0x96060590
0,      85880,      85880,     1024,     4096, 0x05060204
0,      86904,      86904,     1024,     4096, 0x05cf0c16
0,      87928,      87928,     1024,     4096, 0xb348e18d
0,      88952,      88952,     1024,     4096, 0xfc88d47b
0,      89976,      89976,     1024,     4096, 0xd445b2b9
0,      91000,      91000,     1024,     4096, 0x5d83bd97
0,      92024,      92024,     1024,     4096, 0x43fa9721
0,      93048,      93048,     1024,     4096, 0x25219dbd
0,      94072,      94072,     1024,     4096, 0x1759bc3f
0,      95096,      95096,     1024,     4096, 0x4925b38d
0,      96120,      96120,     1024,     4096, 0xa8a7c7e7
0,      97144,      97144,     1024,     4096, 0x9dbbfe19
0,      98168,      98168,     1024,     4096, 0x8b2182a9
0,      99192,      99192,     1024,     4096, 0x3601b417
0,     100216,     100216,     1024,     4096, 0xdedaed89
0,     101240,     101240,     1024,     4096, 0xffacd8db
0,     102264,     102264,     1024,     4096, 0x7df9d58d
0,     103288,     103288,     1024,     4096, 0x9cecae51
0,     104312,     104312,     1024,     4096, 0xc163cc3f
0,     105336,     105336,     1024,     4096, 0x3d25b799
0,     106360,     106360,     1024,     4096, 0x815192fb
0,     107384,     107384,     1024,     4096, 0xaeb1ad99
0,     108408,     108408,     1024,     4096, 0x9f05ed2b
0,     109432,     109432,     1024,     4096, 0xf3bacd99
0,     110456,     110456,     1024,     4096, 0x56e4f28b
0,     111480,     111480,     1024,     4096, 0xe733e81d
0,     112504,     112504,     1024,     4096, 0x9e54195e
0,     113528,     113528,     1024,     4096, 0x4e61fa9f
0,     114552,     114552,     1024,     4096, 0x5425ed95
0,     115576,     115576,     1024,     4096, 0x0ba4ed4d
0,     116600,     116600,     1024,     4096, 0x1027fc33
0,     117624,     117624,     1024,     4096, 0x1622c7e5
0,     118648,     118648,     1024,     4096, 0x0471ff05
0,     119672,     119672,     1024,     4096, 0x69a40e10
0,     120696,     120696,     1024,     4096, 0x22e413ba
0,     121720,     121720,     1024,     4096, 0x78fafea9
0,     122744,     122744,     1024,     4096, 0x30f1f61d
0,     123768,     123768,     1024,     4096, 0x5e24f561
0,     124792,     124792,     1024,     4096, 0xab19ceb5
0,     125816,     125816,     1024,     4096, 0x0c16c3dd
0,     126840,     126840,     1024,     4096, 0xe13afd1b
0,     127864,     127864,     1024,     4096, 0xb3a0f46d
0,     128888,     128888,     1024,     4096, 0xe1f4f585
0,     129912,     129912,     1024,     4096, 0x51cd28e2
0,     130936,     130936,     1024,     4096, 0x34c1047e
0,     131960,     131960,     1024,     4096, 0x5c04f360
0,     132984,     132984,     1024,     4096, 0x17bfe876
0,     134008,     134008,     1024,     4096, 0x4d7fea40
0,     135032,     135032,     1024,     4096, 0x8d23f2da
0,     136056,     136056,     1024,     4096, 0xfc140395
0,     137080,     137080,     1024,     4096, 0x891f0008
0,     138104,     138104,     1024,     4096, 0x28d0188a
0,     139128,     139128,     1024,     4096, 0xbf0df63e
0,     140152,     140152,     1024,     4096, 0x1751e8f0
0,     141176,     141176,     1024,     4096, 0xe1beee48
0,     142200,     142200,     1024,     4096, 0x27adfc7c
0,     143224,     143224,     1024,     4096, 0x2314d632
0,     144248,     144248,     1024,     4096, 0xf39aff11
0,     145272,     145272,     1024,     4096, 0xd1fb0d61
0,     146296,     146296,     1024,     4096, 0xf51b0083
0,     147320,     147320,     1024,     4096, 0x9822f530
0,     148344,     148344,     1024,     4096, 0x6dc8df31
0,     149368,     149368,     1024,     4096, 0x6f2e0184
0,     150392,     150392,     1024,     4096, 0x7a9afdb9
0,     151416,     151416,     1024,     4096, 0x2f85001a
0,     152440,     152440,     1024,     4096, 0x3a6cf053
0,     153464,     153464,     1024,     4096, 0x030a131d
0,     154488,     154488,     1024,     4096, 0xfc050025
0,     155512,     155512,     1024,     4096, 0xd1a9d654
0,     156536,     156536,     1024,     4096, 0x199ff4fe
0,     157560,     157560,     1024,     4096, 0xa84bee80
0,     158584,     158584,     1024,     4096, 0xda96e946
0,     159608,     159608,     1024,     4096, 0xc026e284
0,     160632,     160632,     1024,     4096, 0x1400185d
0,     161656,     161656,     1024,     4096, 0xd9a2f887
0,     162680,     162680,     1024,     4096, 0xaa8bfdfe
0,     163704,     163704,     1024,     4096, 0x49a9e7df
0,     164728,     164728,     1024,     4096, 0x159e0717
0,     165752,     165752,     1024,     4096, 0x9a3eff6b
0,     166776,     166776,     1024,     4096, 0xaa5ef364
0,     167800,     167800,     1024,     4096, 0x32c20b32
0,     168824,     168824,     1024,     4096, 0x67f0f55b
0,     169848,     169848,     1024,     4096, 0x1002eff5
0,     170872,     170872,     1024,     4096, 0x7fa0ea71
0,     171896,     171896,     1024,     4096, 0x0c61e8ea
0,     172920,     172920,     1024,     4096, 0xd68fe4bf
0,     173944,     173944,     1024,     4096, 0x2aa00648
0,     174968,     174968,     1024,     4096, 0x74ffeeae
0,     175992,     175992,      408,     1632, 0x28353dae
0,     176400,     176400,    88200,   352800, 0x4fb492af
0,     264600,     264600,     1912,     7648, 0xf0c93a5a
0,     266512,     266512,     1024,     4096, 0x35b6d595
0,     267536,     267536,     1024,     4096, 0xc4481118
0,     268560,     268560,     1024,     4096, 0x5dc0b58d
0,     269584,     269584,     1024,     4096, 0x4a53a7f1
0,     270608,     270608,     1024,     4096, 0xc38e9bec
0,     271632,     271632,     1024,     4096, 0xc9443282
0,     272656,     272656,     1024,     4096, 0x8018d290
0,     273680,     273680,     1024,     4096, 0xf32d9a70
0,     274704,     274704,     1024,     4096, 0xc63ae76a
0,     275728,     275728,     1024,     4096, 0xcd5d1222
0,     276752,     276752,     1024,     4096, 0x8226c5de
0,     277776,     277776,     1024,     4096, 0xf2fb1f27
0,     278800,     278800,     1024,     4096, 0x9fb0ba34
0,     279824,     279824,     1024,     4096, 0xf178e325
0,     280848,     280848,     1024,     4096, 0x9c2b2db4
0,     281872,     281872,     1024,     4096, 0x1336d63c
0,     282896,     282896,     1024,     4096, 0x0688ef16
0,     283920,     283920,     1024,     4096, 0xd833f93f
0,     284944,     284944,     1024,     4096, 0xab7fad69
0,     285968,     285968,     1024,     4096, 0x5c3c09fb
0,     286992,     286992,     1024,     4096, 0x41c9e4ed
0,     288016,     288016,     1024,     4096, 0xb670a66c
0,     289040,     289040,     1024,     4096, 0x86a0af26
0,     290064,     290064,     1024,     4096, 0x55afec1f
0,     291088,     291088,     1024,     4096, 0x36d51c13
0,     292112,     292112,     1024,     4096, 0x54a15642
0,     293136,     293136,     1024,     4096, 0x0e3edeaf
0,     294160,     294160,     1024,     4096, 0x63d74a2d
0,     295184,     295184,     1024,     4096, 0x2a60f9ee
0,     296208,     296208,     1024,     4096, 0xa562fd0b
0,     297232,     297232,     1024,     4096, 0xf382907c
0,     298256,     298256,     1024,     4096, 0x32aafa99
0,     299280,     299280,     1024,     4096, 0xb1da3640
0,     300304,     300304,     1024,     4096, 0x3da8d51a
0,     301328,     301328,     1024,     4096, 0x3afe27bc
0,     302352,     302352,     1024,     4096, 0x05d30d0f
0,     303376,     303376,     1024,     4096, 0x86214868
0,     304400,     304400,     1024,     4096, 0x6283507f
0,     305424,     305424,     1024,     4096, 0x3fb53fe7
0,     306448,     306448,     1024,     4096, 0x5d907ea8
0,     307472,     307472,     1024,     4096, 0xa7c389de
0,     308496,     308496,     1024,     4096, 0xe28ba1f2
0,     309520,     309520,     1024,     4096, 0x9932afac
0,     310544,     310544,     1024,     4096, 0x82f1e0c2
0,     311568,     311568,     1024,     4096, 0x5c80bb5f
0,     312592,     312592,     1024,     4096, 0x6b73c24f
0,     313616,     313616,     1024,     4096, 0x22b3ae86
0,     314640,     314640,     1024,     4096, 0x9ea7b6ec
0,     315664,     315664,     1024,     4096, 0x5c5813a2
0,     316688,     316688,     1024,     4096, 0x0058fcee
0,     317712,     317712,     1024,     4096, 0xc0717d58
0,     318736,     318736,     1024,     4096, 0xc891c3df
0,     319760,     319760,     1024,     4096, 0xe4e3ac85
0,     320784,     320784,     1024,     4096, 0x3bdd40c6
0,     321808,     321808,     1024,     4096, 0xd57e116c
0,     322832,     322832,     1024,     4096, 0x494c72ab
0,     323856,     323856,     1024,     4096, 0xcb661c13
0,     324880,     324880,     1024,     4096, 0xb55811f9
0,     325904,     325904,     1024,     4096, 0xbff22c30
0,     326928,     326928,     1024,     4096, 0x9332e605
0,     327952,     327952,     1024,     4096, 0x90bb6299
0,     328976,     328976,     1024,     4096, 0xebdd4500
0,     330000,     330000,     1024,     4096, 0x3d940413
0,     331024,     331024,     1024,     4096, 0x3445f60f
0,     332048,     332048,     1024,     4096, 0x613e016c
0,     333072,     333072,     1024,     4096, 0xd565de1c
0,     334096,     334096,     1024,     4096, 0xba771399
0,     335120,     335120,     1024,     4096, 0x730b7c1e
0,     336144,     336144,     1024,     4096, 0xc2f003a3
0,     337168,     337168,     1024,     4096, 0x9186ff8e
0,     338192,     338192,     1024,     4096, 0x7356b98c
0,     339216,     339216,     1024,     4096, 0xbc02af51
0,     340240,     340240,     1024,     4096, 0xac922f72
0,     341264,     341264,     1024,     4096, 0x53d1060e
0,     342288,     342288,     1024,     4096, 0xe598611b
0,     343312,     343312,     1024,     4096, 0xd7ac93df
0,     344336,     344336,     1024,     4096, 0x59b77247
0,     345360,     345360,     1024,     4096, 0x206418c9
0,     346384,     346384,     1024,     4096, 0xd360c906
0,     347408,     347408,     1024,     4096, 0x7b92c2c0
0,     348432,     348432,     1024,     4096, 0x021dcb06
0,     349456,     349456,     1024,     4096, 0xc9b9a3ee
0,     350480,     350480,     1024,     4096, 0xa6e01534
0,     351504,     351504,     1024,     4096, 0xb0d74c80
0,     352528,     352528,     1024,     4096, 0x63f1a8c4
0,     353552,     353552,     1024,     4096, 0xe45a00df
0,     354576,     354576,     1024,     4096, 0xd75032fc
0,     355600,     355600,     1024,     4096, 0x553459cf
0,     356624,     356624,     1024,     4096, 0x1b33a1bc
0,     357648,     357648,     1024,     4096, 0x624d9fa5
0,     358672,     358672,     1024,     4096, 0x69ef01c2
0,     359696,     359696,     1024,     4096, 0x2abae91b
0,     360720,     360720,     1024,     4096, 0x677619c8
0,     361744,     361744,     1024,     4096, 0xdc47f672
0,     362768,     362768,     1024,     4096, 0x3ca75283
0,     363792,     363792,     1024,     4096, 0x8edec474
0,     364816,     364816,     1024,     4096, 0x323d1977
0,     365840,     365840,     1024,     4096, 0x70d8200e
0,     366864,     366864,     1024,     4096, 0xf0fc692d
0,     367888,     367888,     1024,     4096, 0x9d7e9451
0,     368912,     368912,     1024,     4096, 0x56110ed6
0,     369936,     369936,     1024,     4096, 0x8308d382
0,     370960,     370960,     1024,     4096, 0xc12e8455
0,     371984,     371984,     1024,     4096, 0xbab70fc3
0,     373008,     373008,     1024,     4096, 0x3974c794
0,     374032,     374032,     1024,     4096, 0x92268867
0,     375056,     375056,     1024,     4096, 0x07bc5db6
0,     376080,     376080,     1024,     4096, 0x3a69a60c
0,     377104,     377104,     1024,     4096, 0x213b8da2
0,     378128,     378128,     1024,     4096, 0x39ddbcb5
0,     379152,     379152,     1024,     4096, 0x6b107851
0,     380176,     380176,     1024,     4096, 0xaa735be6
0,     381200,     381200,     1024,     4096, 0x3becca60
0,     382224,     382224,     1024,     4096, 0x1383217b
0,     383248,     383248,     1024,     4096, 0x2a93fb25
0,     384272,     384272,     1024,     4096, 0x057e076d
0,     385296,     385296,     1024,     4096, 0xf306219b
0,     386320,     386320,     1024,     4096, 0x3d1f238b
0,     387344,     387344,     1024,     4096, 0x4bdaeb13
0,     388368,     388368,     1024,     4096, 0xbe12e587
0,     389392,     389392,     1024,     4096, 0xf428fc99
0,     390416,     390416,     1024,     4096, 0x25131fac
0,     391440,     391440,     1024,     4096, 0xaaddd43a
0,     392464,     392464,     1024,     4096, 0x082d1b1f
0,     393488,     393488,     1024,     4096, 0xec8d6067
0,     394512,     394512,     1024,     4096, 0x69880a4a
0,     395536,     395536,     1024,     4096, 0x98892785
0,     396560,     396560,     1024,     4096, 0x90d48fe5
0,     397584,     397584,     1024,     4096, 0xf2c77de0
0,     398608,     398608,     1024,     4096, 0xbf883f1e
0,     399632,     399632,     1024,     4096, 0x2366eed3
0,     400656,     400656,     1024,     4096, 0x99a61a4b
0,     401680,     401680,     1024,     4096, 0x6496ff68
0,     402704,     402704,     1024,     4096, 0x43d4ae23
0,     403728,     403728,     1024,     4096, 0xfcbbdd39
0,     404752,     404752,     1024,     4096, 0x8e8491d2
0,     405776,     405776,     1024,     4096, 0x166bdaa7
0,     406800,     406800,     1024,     4096, 0x5936e4de
0,     407824,     407824,     1024,     4096, 0x5da0f74c
0,     408848,     408848,     1024,     4096, 0x284c1816
0,     409872,     409872,     1024,     4096, 0x9ae2fb10
0,     410896,     410896,     1024,     4096, 0xef4f09f9
0,     411920,     411920,     1024,     4096, 0x7d7146b2
0,     412944,     412944,     1024,     4096, 0x3543f90c
0,     413968,     413968,     1024,     4096, 0x9f350dea
0,     414992,     414992,     1024,     4096, 0x89a761f8
0,     416016,     416016,     1024,     4096, 0x7ed69125
0,     417040,     417040,     1024,     4096, 0x75ddbd7b
0,     418064,     418064,     1024,     4096, 0xb59ff6ba
0,     419088,     419088,     1024,     4096, 0xbe8e35d8
0,     420112,     420112,     1024,     4096, 0x9c3acb27
0,     421136,     421136,     1024,     4096, 0x8bdefcc4
0,     422160,     422160,     1024,     4096, 0xd9796b89
0,     423184,     423184,     1024,     4096, 0x09ef18e5
0,     424208,     424208,     1024,     4096, 0xa34eec05
0,     425232,     425232,     1024,     4096, 0x59a4e5fe
0,     426256,     426256,     1024,     4096, 0x7cf68f50
0,     427280,     427280,     1024,     4096, 0x5635a169
0,     428304,     428304,     1024,     4096, 0x9c8ba2ee
0,     429328,     429328,     1024,     4096, 0x31bda22b
0,     430352,     430352,     1024,     4096, 0xd33732d9
0,     431376,     431376,     1024,     4096, 0x6041e3bf
0,     432400,     432400,     1024,     4096, 0x7661d8e4
0,     433424,     433424,     1024,     4096, 0x8744e56f
0,     434448,     434448,     1024,     4096, 0x0d90222c
0,     435472,     435472,     1024,     4096, 0xb749b6ee
0,     436496,     436496,     1024,     4096, 0xc501e611
0,     437520,     437520,     1024,     4096, 0x54bc9dae
0,     438544,     438544,     1024,     4096, 0x7ebd8901
0,     439568,     439568,     1024,     4096, 0xd48f55ab
0,     440592,     440592,     1024,     4096, 0xf1f0979b
0,     441616,     441616,     1024,     4096, 0x0532a2d2
0,     442640,     442640,     1024,     4096, 0x1000e7a2
0,     443664,     443664,     1024,     4096, 0x461d9b08
0,     444688,     444688,     1024,     4096, 0xb119bcf8
0,     445712,     445712,     1024,     4096, 0x03f2eb83
0,     446736,     446736,     1024,     4096, 0xeba9f3b4
0,     447760,     447760,     1024,     4096, 0x9a6ffc8e
0,     448784,     448784,     1024,     4096, 0x52f54bc2
0,     449808,     449808,     1024,     4096, 0xd17ec7d6
0,     450832,     450832,     1024,     4096, 0x18b01fba
0,     451856,     451856,     1024,     4096, 0x5d5af13e
0,     452880,     452880,     1024,     4096, 0xe04a2919
0,     453904,     453904,     1024,     4096, 0xc68c00b2
0,     454928,     454928,     1024,     4096, 0x83a17a70
0,     455952,     455952,     1024,     4096, 0x9de07f7f
0,     456976,     456976,     1024,     4096, 0x2ef91463
0,     458000,     458000,     1024,     4096, 0x9eaee29e
0,     459024,     459024,     1024,     4096, 0xdfe3010b
0,     460048,     460048,     1024,     4096, 0x0b0828b4
0,     461072,     461072,     1024,     4096, 0x3ba8cee9
0,     462096,     462096,     1024,     4096, 0x4b8bfe1f
0,     463120,     463120,     1024,     4096, 0xc9da5ee4
0,     464144,     464144,     1024,     4096, 0x951f70f3
0,     465168,     465168,     1024,     4096, 0xba34e5a5
0,     466192,     466192,     1024,     4096, 0x433716a1
0,     467216,     467216,     1024,     4096, 0x39b24efb
0,     468240,     468240,     1024,     4096, 0xe4a4b039
0,     469264,     469264,     1024,     4096, 0x7906f2e6
0,     470288,     470288,     1024,     4096, 0x40c8c726
0,     471312,     471312,     1024,     4096, 0x6554cc46
0,     472336,     472336,     1024,     4096, 0xf5b5d919
0,     473360,     473360,     1024,     4096, 0x4437d4b0
0,     474384,     474384,     1024,     4096, 0xa291f38f
0,     475408,     475408,     1024,     4096, 0x0f81ad0b
0,     476432,     476432,     1024,     4096, 0x4fb2c3e0
0,     477456,     477456,     1024,     4096, 0xa2be4072
0,     478480,     478480,     1024,     4096, 0x0674126f
0,     479504,     479504,     1024,     4096, 0x3ab7e86c
0,     480528,     480528,     1024,     4096, 0x736e87ae
0,     481552,     481552,     1024,     4096, 0x1a050d8d
0,     482576,     482576,     1024,     4096, 0xe92a59df
0,     483600,     483600,     1024,     4096, 0xed8cb3bf
0,     484624,     484624,     1024,     4096, 0xb5520d14
0,     485648,     485648,     1024,     4096, 0x437d4e88
0,     486672,     486672,     1024,     4096, 0xc67a4422
0,     487696,     487696,     1024,     4096, 0x1f7f912d
0,     488720,     488720,     1024,     4096, 0x67429495
0,     489744,     489744,     1024,     4096, 0xd7ffb252
0,     490768,     490768,     1024,     4096, 0x517ade18
0,     491792,     491792,     1024,     4096, 0x527a31d7
0,     492816,     492816,     1024,     4096, 0xdbc0a560
0,     493840,     493840,     1024,     4096, 0x029048da
0,     494864,     494864,     1024,     4096, 0x85df6c55
0,     495888,     495888,     1024,     4096, 0xc68983a2
0,     496912,     496912,     1024,     4096, 0x951a140b
0,     497936,     497936,     1024,     4096, 0xc1560b9b
0,     498960,     498960,     1024,     4096, 0xb27302c3
0,     499984,     499984,     1024,     4096, 0x50ad5360
0,     501008,     501008,     1024,     4096, 0x1ccbf240
0,     502032,     502032,     1024,     4096, 0x85b2a928
0,     503056,     503056,     1024,     4096, 0xd3f8d0b8
0,     504080,     504080,     1024,     4096, 0xe7833196
0,     505104,     505104,     1024,     4096, 0xd6ac1184
0,     506128,     506128,     1024,     4096, 0x27466545
0,     507152,     507152,     1024,     4096, 0x11119fb9
0,     508176,     508176,     1024,     4096, 0x6b383b60
0,     509200,     509200,     1024,     4096, 0x14f78f30
0,     510224,     510224,     1024,     4096, 0xda4c3aca
0,     511248,     511248,     1024,     4096, 0xdd24bf6e
0,     512272,     512272,     1024,     4096, 0x165d0a06
0,     513296,     513296,     1024,     4096, 0x42e5407b
0,     514320,     514320,     1024,     4096, 0x8e5d3def
0,     515344,     515344,     1024,     4096, 0x367c9896
0,     516368,     516368,     1024,     4096, 0xe27455a0
0,     517392,     517392,     1024,     4096, 0xb331cb8c
0,     518416,     518416,     1024,     4096, 0x8cf7fa69
0,     519440,     519440,     1024,     4096, 0x713f08f7
0,     520464,     520464,     1024,     4096, 0x9308e552
0,     521488,     521488,     1024,     4096, 0xb14cf9bd
0,     522512,     522512,     1024,     4096, 0xf408d356
0,     523536,     523536,     1024,     4096, 0xe4adda2e
0,     524560,     524560,     1024,     4096, 0x62ca992c
0,     525584,     525584,     1024,     4096, 0xedcb7048
0,     526608,     526608,     1024,     4096, 0xfafd3ac3
0,     527632,     527632,     1024,     4096, 0x4018aec3
0,     528656,     528656,     1024,     4096, 0x7e0a0e23
0,     529680,     529680,     1024,     4096, 0xb58992db
0,     530704,     530704,     1024,     4096, 0xe39b3301
0,     531728,     531728,     1024,     4096, 0x2c9a85bb
0,     532752,     532752,     1024,     4096, 0x0aae1d68
0,     533776,     533776,     1024,     4096, 0x36f8b423
0,     534800,     534800,     1024,     4096, 0x44c10fec
0,     535824,     535824,     1024,     4096, 0xc0b5e715
0,     536848,     536848,     1024,     4096, 0xa09ff7ec
0,     537872,     537872,     1024,     4096, 0x53d42436
0,     538896,     538896,     1024,     4096, 0x1d630a0a
0,     539920,     539920,     1024,     4096, 0x71a1f91c
0,     540944,     540944,     1024,     4096, 0x65331b70
0,     541968,     541968,     1024,     4096, 0x8cd33518
0,     542992,     542992,     1024,     4096, 0x067de410
0,     544016,     544016,     1024,     4096, 0x8d4a4618
0,     545040,     545040,     1024,     4096, 0x3632d993
0,     546064,     546064,     1024,     4096, 0x6259b193
0,     547088,     547088,     1024,     4096, 0xbdb7bcbf
0,     548112,     548112,     1024,     4096, 0x8625af9b
0,     549136,     549136,     1024,     4096, 0x4d3e7b07
0,     550160,     550160,     1024,     4096, 0x76d6cf52
0,     551184,     551184,     1024,     4096, 0x54f07eb8
0,     552208,     552208,     1024,     4096, 0x93cb65a1
0,     553232,     553232,     1024,     4096, 0x5f9b3df7
0,     554256,     554256,     1024,     4096, 0x5fa8e05e
0,     555280,     555280,     1024,     4096, 0xeaebf0ab
0,     556304,     556304,     1024,     4096, 0xd317ed69
0,     557328,     557328,     1024,     4096, 0x66fd1a32
0,     558352,     558352,     1024,     4096, 0x9608a614
0,     559376,     559376,     1024,     4096, 0xa1c661c6
0,     560400,     560400,     1024,     4096, 0xaa21d89e
0,     561424,     561424,     1024,     4096, 0xca8820c0
0,     562448,     562448,     1024,     4096, 0x25c4a979
0,     563472,     563472,     1024,     4096, 0xfc1ae730
0,     564496,     564496,     1024,     4096, 0xd681f6cb
0,     565520,     565520,     1024,     4096, 0x4f8497ca
0,     566544,     566544,     1024,     4096, 0xc1a033d6
0,     567568,     567568,     1024,     4096, 0xada5f805
0,     568592,     568592,     1024,     4096, 0x75ee4703
0,     569616,     569616,     1024,     4096, 0x722521ff
0,     570640,     570640,     1024,     4096, 0xd26c503f
0,     571664,     571664,     1024,     4096, 0x9f62715e
0,     572688,     572688,     1024,     4096, 0x32ff9d07
0,     573712,     573712,     1024,     4096, 0x333646aa
0,     574736,     574736,     1024,     4096, 0x9c590e90
0,     575760,     575760,     1024,     4096, 0x5ed119e1
0,     576784,     576784,     1024,     4096, 0xde2a8d38
0,     577808,     577808,     1024,     4096, 0xdad9fca7
0,     578832,     578832,     1024,     4096, 0x51f5e65d
0,     579856,     579856,     1024,     4096, 0x61910e01
0,     580880,     580880,     1024,     4096, 0xb4d10d4f
0,     581904,     581904,     1024,     4096, 0x892a5875
0,     582928,     582928,     1024,     4096, 0x64c828e5
0,     583952,     583952,     1024,     4096, 0x6db0da46
0,     584976,     584976,     1024,     4096, 0x9c10dc3f
0,     586000,     586000,     1024,     4096, 0x96c02ce6
0,     587024,     587024,     1024,     4096, 0x3bec5ed2
0,     588048,     588048,     1024,     4096, 0x40f263f0
0,     589072,     589072,     1024,     4096, 0x7750137d
0,     590096,     590096,     1024,     4096, 0x044dc19b
0,     591120,     591120,     1024,     4096, 0x58a8dda4
0,     592144,     592144,     1024,     4096, 0xe02ec285
0,     593168,     593168,     1024,     4096, 0x722a2f2a
0,     594192,     594192,     1024,     4096, 0xca5e4d42
0,     595216,     595216,      134,      536, 0x45fd3d3d
